# xmcd
#
# Track frame offsets: 
#        150
#        14483
#        28199
#        43168
#        57349
#        74156
#        89622
#        103427
#        118607
#        132903
#        145824
#        160107
#        175262
#        189765
#        205112
#        218351
#        232684
#        246493
#        261862
#        277741
#        290664
#        303095
#        314932
#
# Disc length: 4399 seconds
#
# Revision: 1
# Processed by: cddbd v1.5.2PL0 Copyright (c) Steve Scherf et al.
# Submitted via: ExactAudioCopyFreeDBPlugin 1.0
#
DISCID=5c112d17
DTITLE=Bessie Smith - I Ain't Gonna Play No Second Fiddle Vol. 1
DYEAR=1999
DGENRE=Blues
TTITLE0=Cake Walkin' Babies (From Home)
TTITLE1=The Yellow Dog Blues
TTITLE2=Soft Pedal Blues
TTITLE3=Dixie Flyer Blues
TTITLE4=Nashville Woman's Blues
TTITLE5=Careless Love Blues
TTITLE6=JC Holmes Blues
TTITLE7=I Ain't Gonna Play No Second Fiddle
TTITLE8=He's Gone Blues
TTITLE9=Nobody's Blues But Mine
TTITLE10=I Ain't Got Nobody
TTITLE11=New Gulf Coast Blues
TTITLE12=Florida Bound Blues
TTITLE13=At The Christmas Ball
TTITLE14=I've Been Mistreated And I Don't Like It
TTITLE15=Red Mountain Blues
TTITLE16=Golden Rule Blues
TTITLE17=Lonesome Desert Blues
TTITLE18=Them "Has Been" Blues
TTITLE19=Squeeze Me
TTITLE20=Untitled Track
TTITLE21=Untitled Track
TTITLE22=Untitled Track
EXTD=
EXTT0=
EXTT1=
EXTT2=
EXTT3=
EXTT4=
EXTT5=
EXTT6=
EXTT7=
EXTT8=
EXTT9=
EXTT10=
EXTT11=
EXTT12=
EXTT13=
EXTT14=
EXTT15=
EXTT16=
EXTT17=
EXTT18=
EXTT19=
EXTT20=
EXTT21=
EXTT22=
PLAYORDER=
